<?xml version="1.0" encoding="utf-8"?>
<!-- Generator: Adobe Illustrator 26.3.1, SVG Export Plug-In . SVG Version: 6.00 Build 0)  -->
<svg version="1.1" id="Layer_1" xmlns="http://www.w3.org/2000/svg" xmlns:xlink="http://www.w3.org/1999/xlink" x="0px" y="0px"
	 viewBox="0 0 612 792" style="enable-background:new 0 0 612 792;" xml:space="preserve">
<style type="text/css">
	.st0{fill:#0D7BC1;stroke:#FFFFFF;stroke-width:5;stroke-miterlimit:10;}
	.st1{fill:none;stroke:#000000;stroke-miterlimit:10;}
	.st2{fill:#0D3A5D;stroke:#FFFFFF;stroke-width:5;stroke-miterlimit:10;}
</style>
<path class="st0" d="M310.8,497.1c2.6,2.2,6.3,5,10.9,7.9c36.1,22.2,97.3,24.5,140.8-12c36.7-30.8,47.1-77.6,42.2-112.6
	c-0.7-5.2-3.9-24.9-16.9-46.7c-14.7-24.6-34-38.4-44.4-44.8l0,0c-5.8-3.3-13.6-7.2-23.4-10.3c-3.5-1.1-13.4-4-26.4-5
	c-9-0.7-47.7-2.7-78.8,20c-3.9,2.8-7.2,5.7-13.4,11c0,0-15.1,13.2-28.3,27.2c-0.2,0.2-0.3,0.3-0.3,0.3c-3.2,3.4,13.3-14-47.2,47.3
	c-28.1,28.5-55.4,56.3-55.4,56.3s6.1,5.1,9.6,7.4c7.8,5,16.4,4.9,26.7,4.7c4.3-0.1,8.9-0.2,14.7-2c0,0,6.2-1.9,11.3-5.3
	c2.1-1.4,4.1-3.1,4.1-3.1c0.9-0.7,1.5-1.4,1.9-1.8c41.6-40,60.6-61.4,60.6-61.4c6.1-6.8,37-41.7,54.2-47.4c0.7-0.2,7.1-2.3,15.8-4.1
	c5.7-1.2,9.2-1.9,13.9-1.9c2.1,0,6.5,0.2,13.2,1.9c5,1.3,19.3,4.7,31.6,14.3c4,3.1,26.4,20.7,29.7,51.6c3,27.4-10.2,56.5-35.8,71.9
	c-23.2,14-52.5,14.3-76.4,0.8L310.8,497.1z"/>
<path class="st1" d="M366.5,439.1"/>
<path class="st2" d="M275,296.1c-9.5-6.7-31-20-61.4-22.6c-42.2-3.6-72.6,16-80.6,21.5c-6.3,4.3-42.6,30.2-51.6,79.4
	c-7.7,41.8,6.9,86.5,39.9,115.6c2.2,1.9,42.7,36.6,95.6,30.1c27.1-3.3,48.1-16.4,51.8-18.7c10.3-6.5,17-13,20.5-16.3
	c47.9-46.2,127.6-127.6,127.6-127.6c-4-3.4-11.9-9.1-23.3-11.7c-5.8-1.3-17.8-2.9-30.5,2.3c-9.2,3.8-14.8,9.5-17.7,12.4
	c-13.5,13.8-32.2,32.3-55,55.3c-5.2,5.6-12.9,13.5-22.5,22.6c-15.2,14.5-22.9,21.8-30.8,25.9c-21.9,11.4-44.9,6.9-48.7,6.1
	c-23.3-4.9-47.6-22-56.8-50.1c-8.5-26-1.1-52.3,12.8-70c3.1-3.9,17.1-20.9,41.8-26.7c5.8-1.4,19.2-4.5,33.9,0c0,0,2.4,0.7,21.5,8.7
	l35-35.8"/>
</svg>
